# xmcd
# Track frame offsets:
# 150
# 11260
# 19065
# 30132
# 39207
# 49722
# 58415
# 66885
# 81747
# 92527
#
# Disc length: 1340 seconds
# Revision: 0
# Processed by: cddbd v1.4PL0 Copyright (c) Steve Scherf et al.
# Submitted via: VisiTrax 2.9.3.171 - For more info visit www.synapsa.com
#
DISCID=72053a0a
DTITLE=Miller, Roger - Super Hits
DYEAR=1900
DGENRE=
TTITLE0=King Of The Road
TTITLE1=Dang Me
TTITLE2=Husbands And Wives
TTITLE3=Chug-A-Lug
TTITLE4=Release Me
TTITLE5=England Swings
TTITLE6=You Can't Roller Skate In A Buffalo Herd
TTITLE7=Me And Bobby McGee
TTITLE8=Don't We All Have The Right
TTITLE9=In The Summertime (You Don't Want My Love)
EXTD=
EXTT0=
EXTT1=
EXTT2=
EXTT3=
EXTT4=
EXTT5=
EXTT6=
EXTT7=
EXTT8=
EXTT9=
PLAYORDER=
